<?xml version="1.0" standalone="no"?>
<!DOCTYPE svg PUBLIC "-//W3C//DTD SVG 20010904//EN"
 "http://www.w3.org/TR/2001/REC-SVG-20010904/DTD/svg10.dtd">
<svg version="1.0" xmlns="http://www.w3.org/2000/svg"
 width="1160.000000pt" height="1160.000000pt" viewBox="0 0 1160.000000 1160.000000"
 preserveAspectRatio="xMidYMid meet">
<metadata>
Created by potrace 1.14, written by Peter Selinger 2001-2017
</metadata>
<g transform="translate(0.000000,1160.000000) scale(0.100000,-0.100000)"
fill="#000000" stroke="none">
<path d="M6070 10765 c-57 -14 -217 -39 -325 -51 -33 -3 -62 -8 -65 -9 -3 -2
-33 -6 -65 -10 -33 -3 -71 -8 -85 -10 -14 -3 -42 -8 -64 -11 -50 -7 -144 -28
-221 -48 -73 -20 -181 -86 -186 -115 -6 -32 -4 -91 3 -91 4 0 8 -6 8 -14 0 -8
36 -52 80 -98 94 -97 132 -150 161 -227 27 -69 33 -194 15 -272 -12 -51 -60
-170 -78 -194 -4 -5 -36 -53 -70 -105 -34 -52 -68 -99 -75 -103 -7 -4 -13 -13
-13 -18 0 -6 -19 -36 -43 -67 -69 -92 -107 -157 -131 -226 -13 -36 -25 -63
-28 -61 -2 2 -22 7 -44 10 -21 4 -66 10 -99 15 -299 46 -761 57 -1015 25 -19
-3 -55 -7 -80 -9 -105 -11 -351 -53 -387 -67 -16 -6 -31 -2 -58 16 -20 14 -40
25 -45 25 -4 0 -10 4 -12 8 -2 6 -170 110 -233 144 -64 35 -251 128 -256 128
-4 0 -40 15 -81 34 -40 18 -118 50 -173 71 -55 21 -113 44 -130 51 -16 7 -33
10 -37 8 -4 -3 -8 -1 -8 4 0 5 -12 12 -28 15 -15 3 -72 19 -127 37 -55 17
-107 33 -115 35 -106 28 -137 37 -150 42 -8 3 -24 7 -36 8 -11 2 -38 8 -61 14
-68 19 -235 50 -348 66 -23 3 -50 7 -61 9 -45 9 -195 19 -305 20 -136 2 -240
-13 -305 -45 -48 -23 -117 -86 -109 -100 3 -4 0 -9 -5 -11 -34 -11 -34 -242
-1 -307 5 -9 6 -22 4 -28 -3 -7 -1 -13 4 -13 4 0 9 -12 10 -26 0 -15 5 -29 10
-33 5 -3 9 -13 9 -21 1 -17 -2 -10 74 -195 55 -133 83 -197 152 -345 17 -36
31 -71 31 -77 0 -7 4 -13 9 -13 5 0 6 -4 3 -10 -3 -5 -1 -10 4 -10 6 0 10 -3
9 -7 -1 -5 8 -28 19 -53 11 -25 30 -66 42 -92 48 -107 61 -138 105 -243 26
-60 50 -119 55 -130 58 -132 58 -132 24 -166 -15 -17 -42 -45 -58 -62 -17 -18
-55 -61 -85 -97 -30 -35 -61 -71 -68 -78 -27 -29 -212 -280 -212 -288 0 -4 -8
-17 -18 -28 -25 -29 -122 -184 -122 -196 0 -6 -5 -10 -11 -10 -5 0 -8 -4 -5
-9 4 -5 2 -11 -3 -13 -10 -3 -176 -325 -218 -423 -27 -61 -113 -284 -118 -305
-2 -8 -4 -16 -5 -17 -2 -2 -4 -7 -5 -13 -1 -5 -4 -12 -5 -15 -1 -3 -4 -9 -5
-15 -1 -5 -4 -12 -5 -15 -1 -3 -3 -8 -4 -12 -1 -5 -10 -35 -21 -68 -10 -33
-19 -64 -21 -70 -1 -5 -10 -39 -19 -75 -9 -36 -19 -73 -21 -83 -2 -10 -6 -27
-9 -37 -7 -22 -13 -52 -21 -100 -3 -19 -10 -54 -15 -78 -5 -24 -12 -67 -15
-95 -3 -29 -9 -54 -12 -57 -4 -3 -8 -21 -8 -40 -1 -19 -4 -62 -8 -95 -17 -169
-20 -240 -20 -465 0 -135 3 -279 7 -320 12 -136 17 -185 23 -220 4 -19 8 -46
9 -60 4 -40 16 -114 20 -130 2 -8 7 -31 10 -50 3 -19 11 -55 16 -80 6 -25 13
-54 15 -65 2 -11 6 -31 9 -45 4 -14 8 -36 11 -49 3 -13 10 -34 16 -45 6 -12
10 -23 9 -26 -4 -12 43 -170 51 -170 5 0 7 -4 4 -8 -6 -10 37 -139 75 -227 4
-11 25 -60 45 -110 39 -98 161 -349 196 -405 12 -19 23 -41 24 -47 1 -7 9 -20
18 -29 9 -8 16 -20 16 -25 0 -5 5 -15 10 -22 6 -7 36 -52 67 -102 31 -49 59
-92 62 -95 3 -3 11 -12 16 -21 31 -49 65 -98 80 -112 9 -10 14 -17 10 -17 -3
0 5 -11 19 -24 15 -13 26 -26 26 -30 0 -8 75 -100 168 -206 111 -126 354 -362
460 -445 14 -11 35 -30 48 -42 13 -13 26 -23 30 -23 3 0 27 -17 53 -38 62 -52
249 -182 261 -182 6 0 10 -4 10 -8 0 -4 25 -21 55 -37 30 -17 55 -34 55 -38 0
-5 5 -5 10 -2 5 3 10 2 10 -3 0 -6 12 -15 28 -22 15 -6 50 -24 77 -40 28 -17
62 -35 78 -41 15 -6 27 -15 27 -20 0 -5 3 -8 7 -7 5 2 37 -12 73 -29 93 -45
221 -103 227 -103 3 0 19 -6 36 -14 54 -23 96 -38 103 -36 4 1 10 -2 13 -7 6
-9 86 -37 106 -38 6 0 12 -2 15 -5 4 -5 69 -27 103 -36 4 -1 8 -2 10 -4 2 -1
11 -4 52 -14 11 -2 31 -9 45 -14 14 -5 28 -10 33 -11 4 0 8 -1 10 -2 3 -1 25
-6 57 -14 14 -3 37 -7 52 -10 15 -2 32 -6 38 -10 6 -4 23 -8 38 -11 32 -5 67
-12 67 -14 0 -1 12 -3 26 -5 38 -5 87 -13 142 -23 26 -5 47 -7 47 -4 0 2 6 -1
13 -7 8 -6 16 -9 19 -6 2 3 38 1 79 -4 162 -21 254 -26 479 -25 191 0 425 8
425 14 0 1 16 3 35 5 19 2 53 6 75 9 22 4 60 9 85 12 50 6 73 10 110 19 14 3
43 8 65 10 22 2 42 5 45 6 3 1 9 1 13 0 4 -1 24 -4 44 -7 19 -3 45 -8 57 -10
80 -15 88 -17 186 -29 30 -4 71 -9 90 -11 156 -19 602 -26 765 -11 137 13 250
26 294 34 14 2 37 6 51 8 14 2 25 4 25 5 0 1 9 3 20 4 11 2 40 7 65 11 52 9
52 9 105 0 22 -4 47 -8 55 -10 8 -1 31 -5 50 -9 53 -9 83 -14 146 -21 33 -4
70 -9 84 -11 148 -25 702 -25 890 0 14 2 48 7 75 10 28 4 64 9 80 12 17 2 44
6 60 9 17 2 40 6 51 9 12 2 39 7 60 10 22 4 46 8 54 11 20 6 67 15 110 22 19
3 41 10 48 15 7 6 15 8 19 5 3 -4 12 -2 20 4 7 6 13 9 13 6 0 -3 21 2 48 10
52 16 90 25 110 26 6 0 12 4 12 8 0 4 17 10 37 14 21 4 47 12 58 18 11 6 25
11 30 12 16 1 99 28 110 35 9 6 101 42 115 46 41 9 416 191 438 212 12 11 28
16 35 10 1 -2 13 7 27 19 13 13 28 23 33 23 5 0 29 14 54 30 24 17 48 30 52
30 4 0 16 9 26 20 10 11 22 20 26 20 5 0 28 14 51 30 24 17 66 45 93 64 28 18
57 39 65 47 8 8 31 25 50 39 19 13 42 30 50 37 8 7 35 29 60 49 72 58 157 133
249 222 47 45 89 82 93 82 4 0 8 4 8 8 0 5 23 33 51 63 58 62 119 132 179 204
39 48 52 65 103 130 13 17 50 68 82 115 33 47 64 88 70 92 5 4 6 8 2 8 -4 0 4
16 19 35 29 38 51 76 86 143 12 23 26 42 31 42 4 0 5 5 2 10 -3 6 -1 10 4 10
6 0 11 7 11 15 0 8 4 15 9 15 8 0 24 37 22 53 -1 4 3 7 9 7 5 0 10 9 10 19 0
11 4 21 8 23 7 2 80 145 87 168 2 7 36 81 46 103 5 9 22 50 38 90 15 39 32 81
36 92 4 11 9 25 11 30 1 6 12 34 23 63 11 29 20 56 22 60 1 4 3 12 6 17 17 45
81 291 77 297 -3 4 0 8 7 8 7 0 10 2 7 6 -3 3 -2 22 3 42 16 64 19 76 24 102
3 14 7 36 10 50 3 14 10 54 15 90 6 36 13 76 16 90 42 220 52 783 20 1045 -3
17 -7 55 -10 85 -7 55 -8 68 -26 172 -19 107 -48 254 -56 278 -3 8 -5 16 -6
17 0 2 -9 35 -20 75 -11 40 -22 84 -25 98 -2 14 -8 34 -13 45 -5 11 -16 45
-25 75 -81 260 -281 688 -417 893 -21 32 -38 62 -38 67 0 5 -6 15 -13 22 -7 7
-28 36 -47 63 -41 61 -132 188 -140 195 -4 3 -13 14 -21 26 -15 22 -81 103
-114 140 -11 12 -45 50 -75 85 -30 34 -62 70 -72 78 -16 16 -5 51 87 266 7 17
23 53 34 80 12 28 26 58 31 67 6 10 10 25 10 33 0 8 4 15 10 15 5 0 9 3 8 8
-2 8 4 21 77 182 31 69 63 139 70 155 7 17 29 65 49 108 20 44 36 81 36 83 0
2 13 32 29 66 16 35 41 92 55 128 14 36 31 79 37 95 7 17 13 35 14 40 0 6 3
15 6 20 6 9 12 32 26 85 10 39 12 45 13 45 1 0 4 14 6 30 8 46 12 70 14 70 3
0 2 99 0 108 -2 4 -4 16 -5 27 -1 11 -3 21 -5 23 -1 1 -3 10 -5 19 -2 10 -10
25 -19 34 -9 8 -16 21 -16 28 0 20 -102 75 -175 93 -98 25 -361 22 -550 -7
-33 -5 -76 -11 -95 -14 -36 -5 -229 -43 -265 -52 -11 -3 -31 -7 -45 -9 -14 -2
-64 -15 -112 -29 -47 -13 -89 -22 -92 -18 -3 3 -6 -1 -6 -8 0 -7 -3 -11 -6 -7
-3 3 -23 -1 -44 -8 -21 -7 -41 -11 -44 -8 -3 4 -6 1 -6 -5 0 -7 -3 -11 -7 -10
-10 2 -115 -28 -168 -48 -22 -9 -48 -18 -59 -20 -10 -2 -24 -8 -32 -15 -8 -6
-14 -9 -14 -6 0 7 -255 -96 -362 -147 -42 -20 -82 -36 -88 -36 -5 0 -10 -4
-10 -9 0 -5 -12 -12 -26 -15 -15 -4 -33 -14 -41 -22 -8 -8 -19 -12 -24 -9 -5
4 -9 1 -9 -4 0 -6 -4 -11 -9 -11 -5 0 -38 -16 -73 -36 -34 -20 -72 -42 -83
-48 -30 -17 -139 -90 -145 -97 -21 -26 -50 -26 -162 -4 -135 27 -175 33 -243
40 -27 3 -60 7 -72 10 -35 8 -153 17 -235 19 -43 0 -78 3 -78 6 0 13 -514 -1
-582 -16 -13 -3 -48 -7 -78 -9 -30 -2 -66 -6 -80 -8 -14 -3 -52 -8 -85 -12
-33 -4 -64 -10 -69 -13 -6 -3 0 10 11 29 51 82 125 256 126 297 0 6 3 12 6 12
3 0 6 10 7 23 0 12 4 40 8 62 16 87 18 114 18 210 0 107 -8 207 -19 240 -4 11
-8 29 -8 40 0 11 -3 25 -7 30 -3 6 -9 26 -14 45 -10 43 -9 41 -18 65 -71 182
-168 329 -293 441 -37 34 -88 82 -114 105 -138 133 -225 161 -379 124z"/>
</g>
</svg>
