<?xml version="1.0" encoding="UTF-8"?><svg id="a" xmlns="http://www.w3.org/2000/svg" viewBox="0 0 846.5 406.21"><defs><style>.b{fill:#fff;}.c{fill:#ccc683;}.c,.d,.e,.f{stroke-miterlimit:10;}.c,.d,.f{stroke:#826023;}.d{fill:#ad883e;}.e{fill:#705e41;stroke:#443824;}.f{fill:#cd883e;}</style></defs><g><g><path class="f" d="M644.62,151.89c9.35,13.64-.06,16.51-14.83,26.64-14.77,10.13-37.58,9.01-43.68-6.36-10.97-27.66-24.57-45.56-6.67-46.1,20.29-.61,55.82,12.19,65.18,25.83Z"/><path class="d" d="M637,160.62c7.48,10.91-.05,13.21-11.87,21.31s-30.06,7.21-34.94-5.09c-8.78-22.13-19.66-36.45-5.34-36.88,16.23-.49,44.66,9.75,52.14,20.66Z"/><path class="c" d="M642.53,162.47c7.48,10.91-.05,13.21-11.87,21.31s-30.06,7.21-34.94-5.09c-8.78-22.13-19.66-36.45-5.34-36.88,16.23-.49,44.66,9.75,52.14,20.66Z"/></g><g><path class="f" d="M758.97,151.89c-9.35,13.64,.06,16.51,14.83,26.64s37.58,9.01,43.68-6.36c10.97-27.66,24.57-45.56,6.67-46.1-20.29-.61-55.82,12.19-65.18,25.83Z"/><path class="d" d="M766.59,160.62c-7.48,10.91,.05,13.21,11.87,21.31,11.81,8.1,30.06,7.21,34.94-5.09,8.78-22.13,19.66-36.45,5.34-36.88-16.23-.49-44.66,9.75-52.14,20.66Z"/><path class="c" d="M761.06,162.47c-7.48,10.91,.05,13.21,11.87,21.31,11.81,8.1,30.06,7.21,34.94-5.09,8.78-22.13,19.66-36.45,5.34-36.88-16.23-.49-44.66,9.75-52.14,20.66Z"/></g><path class="e" d="M679.67,145.74c-2.56-7.12,13.52-15.92,10.45-27.67-1.68-6.44-7.55-7.79-6.76-11.07,1.07-4.47,19.93-4.91,25.34-6.45,5.41-1.54,7.7,2.51,10.94,5.22,11.01,9.21,12.58,28.11,3.07,39.35-12.99,15.36-40.14,8.69-43.04,.61Z"/><g><path class="e" d="M679.83,145.74c-2.56-7.12,13.52-15.92,10.45-27.67-1.68-6.44-7.55-7.79-6.76-11.07,1.07-4.47,19.93-4.91,25.34-6.45,5.41-1.54,7.7,2.51,10.94,5.22,11.01,9.21,12.58,28.11,3.07,39.35-12.99,15.36-40.14,8.69-43.04,.61Z"/><path class="e" d="M688.4,145.89c-1.67-7,8.79-15.64,6.8-27.18-1.09-6.32-4.91-7.65-4.4-10.87,.69-4.39,12.96-4.82,16.48-6.34,3.52-1.51,5.01,2.47,7.12,5.13,7.16,9.05,8.18,27.62,2,38.66-8.45,15.09-26.1,8.54-27.99,.6Z"/><path class="e" d="M695.8,145.89c-.89-7,4.7-15.64,3.64-27.18-.58-6.32-2.63-7.65-2.35-10.87,.37-4.39,6.94-4.82,8.82-6.34,1.88-1.51,2.68,2.47,3.81,5.13,3.83,9.05,4.38,27.62,1.07,38.66-4.52,15.09-13.97,8.54-14.98,.6Z"/></g><g><circle class="f" cx="659.99" cy="245.06" r="102.99"/><circle class="f" cx="743.01" cy="245.06" r="102.99"/><circle class="f" cx="701.5" cy="245.06" r="102.99"/></g><ellipse class="f" cx="701.5" cy="245.06" rx="51.65" ry="102.99"/><g><path class="d" d="M628.02,218.61c-1.42,1.32-5.59,5.5-7.38,12.3-.55,2.11-1.38,5.26-.61,9.22,1.48,7.64,7.63,11.68,8.61,12.3,6.53,4.14,13.27,2.89,15.37,2.46,1.76-.36,9.19-1.86,13.53-8.61,5.4-8.42,1.52-18.05,.61-20.29-.8-1.99-5.24-12.99-14.76-14.14-7.16-.87-12.81,4.38-15.37,6.76Z"/><path class="c" d="M633.39,218.61c-1.18,1.32-4.65,5.5-6.14,12.3-.46,2.11-1.15,5.26-.51,9.22,1.23,7.64,6.35,11.68,7.17,12.3,5.43,4.14,11.04,2.89,12.79,2.46,1.46-.36,7.65-1.86,11.26-8.61,4.5-8.42,1.27-18.05,.51-20.29-.67-1.99-4.36-12.99-12.28-14.14-5.96-.87-10.66,4.38-12.79,6.76Z"/></g><g><path class="d" d="M775.02,218.61c1.42,1.32,5.59,5.5,7.38,12.3,.55,2.11,1.38,5.26,.61,9.22-1.48,7.64-7.63,11.68-8.61,12.3-6.53,4.14-13.27,2.89-15.37,2.46-1.76-.36-9.19-1.86-13.53-8.61-5.41-8.42-1.52-18.05-.61-20.29,.8-1.99,5.24-12.99,14.76-14.14,7.16-.87,12.81,4.38,15.37,6.76Z"/><path class="c" d="M769.65,218.61c1.18,1.32,4.66,5.5,6.14,12.3,.46,2.11,1.15,5.26,.51,9.22-1.23,7.64-6.35,11.68-7.17,12.3-5.43,4.14-11.04,2.89-12.8,2.46-1.46-.36-7.65-1.86-11.26-8.61-4.5-8.42-1.27-18.05-.51-20.29,.67-1.99,4.36-12.99,12.28-14.14,5.96-.87,10.66,4.38,12.8,6.76Z"/></g><g><path class="d" d="M707.55,299.51v-19.58c0-.9-.73-1.64-1.64-1.64h-8.98c-.9,0-1.64,.73-1.64,1.64v19.34c0,.73-.48,1.38-1.19,1.58-10.22,2.87-29.07,5.25-43.87-9.54-1.04-1.03-2.8-.31-2.8,1.15v7.04c0,.39,.14,.77,.39,1.07,15.68,18.33,37.06,14.96,47.47,11.8h0l12.26,.23h0c10.35,3.17,31.87,6.67,47.63-11.75,.25-.3,.39-.68,.39-1.07v-7.04c0-1.46-1.77-2.18-2.8-1.15-14.88,14.87-33.85,12.38-44.03,9.49-.7-.2-1.18-.84-1.18-1.57Z"/><ellipse class="d" cx="700.03" cy="273.78" rx="17.87" ry="10.28"/><path class="c" d="M751.16,288.6c-14.25,12.84-31.72,10.87-41.68,8.18-1.14-.31-1.93-1.35-1.93-2.54v-10.52c7.65-1.16,13.29-5.17,13.29-9.94,0-5.68-8-10.28-17.87-10.28s-17.87,4.6-17.87,10.28c0,4.1,4.17,7.63,10.19,9.29v10.94c0,1.19-.79,2.23-1.94,2.54-9.99,2.67-27.34,4.55-41.51-8.22-1.7-1.53-4.4-.35-4.4,1.94v4.37c0,.63,.22,1.24,.63,1.71,15.46,17.8,36.35,14.74,46.84,11.64,.26-.08,.53-.11,.8-.11l11.85,.23h0c10.3,3.16,31.65,6.64,47.39-11.47,.41-.47,.63-1.08,.63-1.71v-4.37c0-2.29-2.7-3.47-4.4-1.94Z"/></g></g><g><path class="b" d="M21.18,212.77c-1.8,0-3.44-.38-4.91-1.13-1.48-.76-2.21-1.89-2.21-3.4v-69.98c0-1.22,.5-2.27,1.51-3.13,1.01-.86,2.3-1.3,3.89-1.3h21.6c4.61,0,8.77,.79,12.47,2.38,3.71,1.58,6.64,4.16,8.8,7.72,2.16,3.56,3.24,8.3,3.24,14.2v.65c0,5.9-1.12,10.66-3.35,14.26-2.23,3.6-5.27,6.21-9.13,7.83-3.85,1.62-8.15,2.43-12.91,2.43h-12.1v24.95c0,1.51-.72,2.65-2.16,3.4-1.44,.76-3.02,1.13-4.75,1.13Zm6.91-40.5h12.1c3.53,0,6.3-1.01,8.32-3.02,2.01-2.02,3.02-5.15,3.02-9.4v-1.19c0-4.25-1.01-7.4-3.02-9.45-2.02-2.05-4.79-3.08-8.32-3.08h-12.1v26.14Z"/><path class="b" d="M95.48,213.74c-4.32,0-8.26-1.03-11.83-3.08-3.56-2.05-6.41-4.75-8.53-8.1-2.12-3.35-3.19-6.93-3.19-10.75v-25.92c0-1.08,.7-2.09,2.11-3.02,1.4-.94,3.04-1.4,4.91-1.4s3.49,.47,4.86,1.4c1.37,.94,2.05,1.94,2.05,3.02v25.92c0,1.66,.43,3.2,1.3,4.64,.86,1.44,2.02,2.65,3.46,3.62,1.44,.97,3.02,1.46,4.75,1.46s3.4-.47,4.81-1.4c1.4-.93,2.54-2.14,3.4-3.62,.86-1.48,1.3-3.04,1.3-4.7v-26.03c0-1.15,.7-2.16,2.11-3.02,1.4-.86,3.01-1.3,4.81-1.3,2.09,0,3.78,.43,5.08,1.3,1.3,.86,1.94,1.87,1.94,3.02v26.03c0,3.89-1.06,7.51-3.19,10.85-2.12,3.35-4.97,6.03-8.53,8.05-3.56,2.02-7.44,3.02-11.61,3.02Z"/><path class="b" d="M135.98,212.77c-2.02,0-3.67-.47-4.97-1.4-1.3-.94-1.94-1.98-1.94-3.13v-42.44c0-1.3,.65-2.34,1.94-3.13,1.3-.79,2.95-1.19,4.97-1.19,1.73,0,3.19,.4,4.37,1.19,1.19,.79,1.78,1.84,1.78,3.13v3.24c1.22-2.09,3.02-3.98,5.4-5.67,2.38-1.69,5.36-2.54,8.96-2.54,3.09,0,5.83,1.01,8.21,3.02,2.38,2.02,4.14,4.61,5.29,7.78,1.87-3.67,4.27-6.39,7.18-8.15,2.92-1.76,5.92-2.65,9.02-2.65,3.31,0,6.43,.85,9.34,2.54,2.92,1.69,5.29,4.18,7.13,7.45,1.84,3.28,2.75,7.25,2.75,11.93v25.49c0,1.15-.69,2.2-2.05,3.13-1.37,.94-3.02,1.4-4.97,1.4s-3.49-.47-4.86-1.4c-1.37-.94-2.05-1.98-2.05-3.13v-25.49c0-2.16-.42-3.96-1.24-5.4-.83-1.44-1.93-2.54-3.29-3.29-1.37-.76-2.77-1.13-4.21-1.13s-2.7,.38-4,1.13c-1.3,.76-2.38,1.85-3.24,3.29-.86,1.44-1.3,3.2-1.3,5.29v25.7c0,1.58-.74,2.72-2.21,3.4-1.48,.69-3.08,1.03-4.81,1.03-1.58,0-3.13-.34-4.64-1.03-1.51-.68-2.27-1.82-2.27-3.4v-25.6c0-2.02-.42-3.74-1.24-5.18-.83-1.44-1.91-2.55-3.24-3.35-1.33-.79-2.75-1.19-4.27-1.19s-2.81,.36-4.1,1.08c-1.3,.72-2.36,1.8-3.19,3.24-.83,1.44-1.24,3.24-1.24,5.4v25.49c0,1.15-.69,2.2-2.05,3.13-1.37,.94-3.02,1.4-4.97,1.4Z"/><path class="b" d="M222.7,236.63c-1.94,0-3.56-.47-4.86-1.4-1.3-.94-1.94-1.94-1.94-3.02v-66.42c0-1.3,.65-2.34,1.94-3.13,1.3-.79,2.88-1.19,4.75-1.19s3.4,.4,4.59,1.19c1.19,.79,1.78,1.84,1.78,3.13v3.24c1.22-2.09,3.09-3.98,5.62-5.67,2.52-1.69,5.51-2.54,8.96-2.54,3.67,0,6.97,.99,9.88,2.97,2.92,1.98,5.22,4.63,6.91,7.94,1.69,3.31,2.54,6.98,2.54,11.02v8.86c0,3.82-.86,7.42-2.59,10.8-1.73,3.39-4.01,6.12-6.86,8.21-2.85,2.09-5.99,3.13-9.45,3.13-3.17,0-6.05-.86-8.64-2.59-2.59-1.73-4.43-3.71-5.51-5.94v27c0,1.08-.69,2.09-2.05,3.02-1.37,.94-3.06,1.4-5.08,1.4Zm16.74-35.1c1.73,0,3.29-.49,4.7-1.46s2.55-2.21,3.46-3.73c.9-1.51,1.35-3.09,1.35-4.75v-8.86c0-1.66-.43-3.2-1.3-4.64-.86-1.44-2.03-2.65-3.51-3.62-1.48-.97-3.12-1.46-4.91-1.46-1.58,0-3.08,.4-4.48,1.19-1.4,.79-2.58,1.91-3.51,3.35-.94,1.44-1.4,3.17-1.4,5.18v10.8c0,.72,.41,1.71,1.24,2.97,.83,1.26,1.96,2.41,3.4,3.46,1.44,1.04,3.09,1.57,4.97,1.57Z"/><path class="b" d="M278.75,212.77c-1.94,0-3.56-.47-4.86-1.4-1.3-.94-1.94-1.98-1.94-3.13v-72.36c0-1.3,.65-2.34,1.94-3.13,1.3-.79,2.92-1.19,4.86-1.19s3.71,.4,5.08,1.19c1.37,.79,2.05,1.84,2.05,3.13v45.25l20.41-19.12c.72-.72,1.62-1.08,2.7-1.08s2.14,.34,3.19,1.03c1.04,.69,1.91,1.53,2.59,2.54,.68,1.01,1.03,2.05,1.03,3.13,0,.43-.09,.88-.27,1.35-.18,.47-.49,.88-.92,1.24l-12.74,11.56,15.98,22.68c.5,.79,.76,1.55,.76,2.27,0,1.08-.43,2.16-1.3,3.24-.86,1.08-1.91,1.96-3.13,2.65-1.23,.68-2.41,1.03-3.56,1.03-1.44,0-2.59-.61-3.46-1.84l-14.47-21.38-6.8,6.05v11.77c0,1.15-.69,2.2-2.05,3.13-1.37,.94-3.06,1.4-5.08,1.4Z"/><path class="b" d="M332,150.02c-2.09,0-3.89-.7-5.4-2.11-1.51-1.4-2.27-2.97-2.27-4.7,0-1.87,.76-3.47,2.27-4.81,1.51-1.33,3.31-2,5.4-2s3.96,.67,5.4,2c1.44,1.33,2.16,2.93,2.16,4.81,0,1.73-.72,3.29-2.16,4.7-1.44,1.4-3.24,2.11-5.4,2.11Zm0,62.75c-2.02,0-3.67-.47-4.97-1.4-1.3-.94-1.94-1.98-1.94-3.13v-42.44c0-1.3,.65-2.34,1.94-3.13,1.3-.79,2.95-1.19,4.97-1.19s3.6,.4,4.97,1.19c1.37,.79,2.05,1.84,2.05,3.13v42.44c0,1.15-.69,2.2-2.05,3.13-1.37,.94-3.02,1.4-4.97,1.4Z"/><path class="b" d="M356.62,212.77c-2.02,0-3.67-.47-4.97-1.4-1.3-.94-1.94-1.98-1.94-3.13v-42.44c0-1.3,.65-2.34,1.94-3.13,1.3-.79,2.95-1.19,4.97-1.19,1.73,0,3.19,.4,4.37,1.19,1.19,.79,1.78,1.84,1.78,3.13v3.24c1.08-2.09,2.86-3.98,5.35-5.67,2.48-1.69,5.52-2.54,9.13-2.54,3.38,0,6.48,.99,9.29,2.97,2.81,1.98,5.06,4.63,6.75,7.94,1.69,3.31,2.54,6.98,2.54,11.02v25.49c0,1.51-.72,2.65-2.16,3.4-1.44,.76-3.06,1.13-4.86,1.13-1.58,0-3.13-.38-4.64-1.13-1.51-.76-2.27-1.89-2.27-3.4v-25.49c0-1.66-.42-3.2-1.24-4.64-.83-1.44-1.96-2.65-3.4-3.62-1.44-.97-3.02-1.46-4.75-1.46-1.44,0-2.85,.4-4.21,1.19-1.37,.79-2.48,1.91-3.35,3.35-.86,1.44-1.3,3.17-1.3,5.18v25.49c0,1.15-.69,2.2-2.05,3.13-1.37,.94-3.02,1.4-4.97,1.4Z"/><path class="b" d="M434.71,150.02c-2.09,0-3.89-.7-5.4-2.11-1.51-1.4-2.27-2.97-2.27-4.7,0-1.87,.76-3.47,2.27-4.81,1.51-1.33,3.31-2,5.4-2s3.96,.67,5.4,2c1.44,1.33,2.16,2.93,2.16,4.81,0,1.73-.72,3.29-2.16,4.7-1.44,1.4-3.24,2.11-5.4,2.11Zm0,62.75c-2.02,0-3.67-.47-4.97-1.4-1.3-.94-1.94-1.98-1.94-3.13v-42.44c0-1.3,.65-2.34,1.94-3.13,1.3-.79,2.95-1.19,4.97-1.19s3.6,.4,4.97,1.19c1.37,.79,2.05,1.84,2.05,3.13v42.44c0,1.15-.69,2.2-2.05,3.13-1.37,.94-3.02,1.4-4.97,1.4Z"/><path class="b" d="M459.33,212.77c-2.02,0-3.67-.47-4.97-1.4-1.3-.94-1.95-1.98-1.95-3.13v-42.44c0-1.3,.65-2.34,1.95-3.13,1.29-.79,2.95-1.19,4.97-1.19,1.73,0,3.19,.4,4.38,1.19,1.19,.79,1.78,1.84,1.78,3.13v3.24c1.08-2.09,2.86-3.98,5.35-5.67,2.48-1.69,5.53-2.54,9.13-2.54,3.38,0,6.48,.99,9.29,2.97,2.81,1.98,5.06,4.63,6.75,7.94,1.69,3.31,2.54,6.98,2.54,11.02v25.49c0,1.51-.72,2.65-2.16,3.4-1.44,.76-3.06,1.13-4.86,1.13-1.58,0-3.13-.38-4.64-1.13s-2.27-1.89-2.27-3.4v-25.49c0-1.66-.42-3.2-1.24-4.64-.83-1.44-1.96-2.65-3.4-3.62-1.44-.97-3.02-1.46-4.75-1.46-1.44,0-2.85,.4-4.21,1.19-1.37,.79-2.48,1.91-3.35,3.35-.86,1.44-1.3,3.17-1.3,5.18v25.49c0,1.15-.68,2.2-2.05,3.13-1.37,.94-3.02,1.4-4.97,1.4Z"/><path class="b" d="M88.03,312.77c-6.48,0-11.43-1.4-14.85-4.21-3.42-2.81-5.13-7.27-5.13-13.39v-52.27c0-1.3,.76-2.34,2.27-3.13,1.51-.79,3.06-1.19,4.64-1.19,1.73,0,3.33,.4,4.81,1.19,1.48,.79,2.21,1.84,2.21,3.13v18.58h12.74c1.15,0,2.03,.52,2.65,1.57,.61,1.04,.92,2.21,.92,3.51s-.31,2.47-.92,3.51c-.61,1.04-1.5,1.57-2.65,1.57h-12.74v23.54c0,2.16,.45,3.67,1.35,4.54,.9,.86,2.47,1.3,4.7,1.3h4.21c2.02,0,3.51,.61,4.48,1.84,.97,1.22,1.46,2.56,1.46,4,0,1.51-.49,2.88-1.46,4.1-.97,1.23-2.47,1.84-4.48,1.84h-4.21Z"/><path class="b" d="M112.44,312.77c-2.02,0-3.67-.47-4.97-1.4-1.3-.94-1.94-1.98-1.94-3.13v-72.36c0-1.3,.65-2.34,1.94-3.13,1.3-.79,2.95-1.19,4.97-1.19s3.6,.4,4.97,1.19c1.37,.79,2.05,1.84,2.05,3.13v33.16c1.08-2.09,2.77-3.98,5.08-5.67,2.3-1.69,5.15-2.54,8.53-2.54s6.48,.99,9.29,2.97c2.81,1.98,5.06,4.63,6.75,7.94,1.69,3.31,2.54,6.98,2.54,11.02v25.49c0,1.51-.72,2.65-2.16,3.4-1.44,.76-3.06,1.13-4.86,1.13-1.58,0-3.13-.38-4.64-1.13-1.51-.76-2.27-1.89-2.27-3.4v-25.49c0-1.66-.43-3.2-1.3-4.64-.86-1.44-2-2.65-3.4-3.62-1.4-.97-2.97-1.46-4.7-1.46-1.44,0-2.85,.4-4.21,1.19-1.37,.79-2.48,1.91-3.35,3.35-.86,1.44-1.3,3.17-1.3,5.18v25.49c0,1.15-.69,2.2-2.05,3.13-1.37,.94-3.02,1.4-4.97,1.4Z"/><path class="b" d="M186.2,313.74c-5.11,0-9.63-.92-13.55-2.75-3.93-1.84-7-4.43-9.23-7.78-2.23-3.35-3.35-7.22-3.35-11.61v-9.18c0-3.89,1.06-7.47,3.19-10.75,2.12-3.28,4.97-5.9,8.53-7.88,3.56-1.98,7.54-2.97,11.93-2.97,4.03,0,7.72,.86,11.07,2.59,3.35,1.73,6.06,4.1,8.15,7.13,2.09,3.02,3.13,6.55,3.13,10.58,0,3.1-.5,5.31-1.51,6.64-1.01,1.33-2.29,2.16-3.83,2.48-1.55,.32-3.15,.49-4.81,.49h-21.92v1.62c0,3.1,1.17,5.6,3.51,7.51,2.34,1.91,5.38,2.86,9.13,2.86,2.38,0,4.36-.36,5.94-1.08,1.58-.72,2.95-1.4,4.1-2.05,1.15-.65,2.23-.97,3.24-.97,1.08,0,2.01,.36,2.81,1.08,.79,.72,1.4,1.57,1.84,2.54,.43,.97,.65,1.82,.65,2.54,0,1.23-.77,2.54-2.32,3.94-1.55,1.4-3.74,2.59-6.59,3.56-2.85,.97-6.21,1.46-10.1,1.46Zm-12.2-31.21h15.77c1.22,0,2.07-.2,2.54-.59,.47-.39,.7-1.17,.7-2.32,0-1.66-.45-3.13-1.35-4.43-.9-1.3-2.05-2.3-3.46-3.02-1.4-.72-2.97-1.08-4.7-1.08s-3.2,.34-4.64,1.03c-1.44,.69-2.61,1.66-3.51,2.92-.9,1.26-1.35,2.75-1.35,4.48v3.02Z"/><path class="b" d="M244.09,312.77c-1.73,0-3.33-.38-4.81-1.13-1.48-.76-2.21-1.85-2.21-3.29v-69.98c0-1.51,.65-2.65,1.94-3.4,1.3-.76,2.7-1.13,4.21-1.13h37.69c1.58,0,2.72,.65,3.4,1.94,.68,1.3,1.03,2.67,1.03,4.1,0,1.73-.38,3.2-1.13,4.43-.76,1.22-1.85,1.84-3.29,1.84h-29.81v21.6h16.52c1.44,0,2.54,.56,3.29,1.67,.76,1.12,1.13,2.43,1.13,3.94,0,1.23-.34,2.43-1.03,3.62-.69,1.19-1.82,1.78-3.4,1.78h-16.52v29.59c0,1.44-.72,2.54-2.16,3.29-1.44,.76-3.06,1.13-4.86,1.13Z"/><path class="b" d="M302.73,313.74c-4.18,0-8.03-1.03-11.56-3.08-3.53-2.05-6.37-4.77-8.53-8.15-2.16-3.38-3.24-7.02-3.24-10.91v-8.86c0-3.89,1.04-7.51,3.13-10.85,2.09-3.35,4.91-6.03,8.48-8.05,3.56-2.01,7.47-3.02,11.72-3.02s8.14,.99,11.66,2.97c3.53,1.98,6.37,4.63,8.53,7.94,2.16,3.31,3.24,6.98,3.24,11.02v8.86c0,3.82-1.08,7.42-3.24,10.8-2.16,3.39-5.02,6.12-8.59,8.21-3.56,2.09-7.44,3.13-11.61,3.13Zm0-12.2c1.73,0,3.31-.47,4.75-1.4,1.44-.93,2.59-2.18,3.46-3.73,.86-1.55,1.3-3.15,1.3-4.81v-8.86c0-1.66-.43-3.2-1.3-4.64-.86-1.44-2-2.65-3.4-3.62-1.4-.97-3.01-1.46-4.81-1.46s-3.31,.47-4.75,1.4c-1.44,.94-2.58,2.14-3.4,3.62-.83,1.48-1.24,3.04-1.24,4.7v8.86c0,1.66,.41,3.26,1.24,4.81,.83,1.55,1.96,2.79,3.4,3.73,1.44,.94,3.02,1.4,4.75,1.4Z"/><path class="b" d="M341.83,312.77c-1.94,0-3.56-.47-4.86-1.4-1.3-.94-1.94-1.98-1.94-3.13v-42.44c0-1.3,.65-2.34,1.94-3.13,1.3-.79,2.92-1.19,4.86-1.19,1.8,0,3.29,.4,4.48,1.19,1.19,.79,1.78,1.84,1.78,3.13v4.43c.79-1.58,1.85-3.08,3.19-4.48,1.33-1.4,2.86-2.57,4.59-3.51,1.73-.93,3.56-1.4,5.51-1.4h3.35c1.37,0,2.55,.59,3.56,1.78,1.01,1.19,1.51,2.61,1.51,4.27s-.5,3.19-1.51,4.37c-1.01,1.19-2.2,1.78-3.56,1.78h-3.35c-2.02,0-3.98,.67-5.89,2-1.91,1.33-3.47,3.17-4.7,5.51-1.23,2.34-1.84,5.17-1.84,8.48v19.22c0,1.15-.69,2.2-2.05,3.13-1.37,.94-3.06,1.4-5.08,1.4Z"/><path class="b" d="M398.53,313.74c-5.11,0-9.63-.92-13.55-2.75-3.93-1.84-7-4.43-9.23-7.78-2.23-3.35-3.35-7.22-3.35-11.61v-9.18c0-3.89,1.06-7.47,3.19-10.75,2.12-3.28,4.97-5.9,8.53-7.88,3.56-1.98,7.54-2.97,11.93-2.97,4.03,0,7.72,.86,11.07,2.59,3.35,1.73,6.06,4.1,8.15,7.13,2.09,3.02,3.13,6.55,3.13,10.58,0,3.1-.5,5.31-1.51,6.64-1.01,1.33-2.29,2.16-3.83,2.48-1.55,.32-3.15,.49-4.81,.49h-21.92v1.62c0,3.1,1.17,5.6,3.51,7.51,2.34,1.91,5.38,2.86,9.13,2.86,2.38,0,4.36-.36,5.94-1.08,1.58-.72,2.95-1.4,4.1-2.05,1.15-.65,2.23-.97,3.24-.97,1.08,0,2.01,.36,2.81,1.08,.79,.72,1.4,1.57,1.84,2.54,.43,.97,.65,1.82,.65,2.54,0,1.23-.77,2.54-2.32,3.94-1.55,1.4-3.74,2.59-6.59,3.56-2.85,.97-6.21,1.46-10.1,1.46Zm-12.2-31.21h15.77c1.22,0,2.07-.2,2.54-.59,.47-.39,.7-1.17,.7-2.32,0-1.66-.45-3.13-1.35-4.43-.9-1.3-2.05-2.3-3.46-3.02-1.4-.72-2.97-1.08-4.7-1.08s-3.2,.34-4.64,1.03c-1.44,.69-2.61,1.66-3.51,2.92-.9,1.26-1.35,2.75-1.35,4.48v3.02Z"/><path class="b" d="M443.45,313.74c-3.6,0-6.9-.45-9.88-1.35-2.99-.9-5.33-2.07-7.02-3.51-1.69-1.44-2.54-2.92-2.54-4.43,0-.79,.2-1.66,.59-2.59,.4-.93,.94-1.76,1.62-2.48,.68-.72,1.49-1.08,2.43-1.08,1.01,0,2.07,.42,3.19,1.24,1.12,.83,2.52,1.64,4.21,2.43,1.69,.79,4.05,1.19,7.07,1.19,3.24,0,5.38-.5,6.43-1.51,1.04-1.01,1.57-2.05,1.57-3.13,0-1.58-.63-2.81-1.89-3.67-1.26-.86-2.86-1.57-4.81-2.11-1.94-.54-4.01-1.13-6.21-1.78-2.2-.65-4.27-1.49-6.21-2.54-1.94-1.04-3.53-2.48-4.75-4.32-1.23-1.84-1.84-4.23-1.84-7.18,0-2.59,.61-5.11,1.84-7.56,1.22-2.45,3.24-4.48,6.05-6.1,2.81-1.62,6.62-2.43,11.45-2.43,2.95,0,5.74,.31,8.37,.92,2.63,.61,4.77,1.46,6.43,2.54,1.66,1.08,2.48,2.27,2.48,3.56,0,.65-.22,1.5-.65,2.54-.43,1.04-1.03,2-1.78,2.86-.76,.86-1.67,1.3-2.75,1.3-.79,0-1.75-.27-2.86-.81-1.12-.54-2.39-1.06-3.83-1.57-1.44-.5-3.17-.76-5.18-.76-1.8,0-3.24,.25-4.32,.76-1.08,.5-1.87,1.12-2.38,1.84-.5,.72-.76,1.48-.76,2.27,0,1.3,.61,2.31,1.84,3.02,1.22,.72,2.82,1.33,4.81,1.84,1.98,.5,4.07,1.06,6.26,1.67,2.2,.61,4.28,1.5,6.26,2.65,1.98,1.15,3.58,2.72,4.81,4.7,1.22,1.98,1.84,4.55,1.84,7.72,0,4.82-1.71,8.68-5.13,11.56-3.42,2.88-8.33,4.32-14.74,4.32Z"/><path class="b" d="M491.51,312.77c-6.48,0-11.43-1.4-14.85-4.21-3.42-2.81-5.13-7.27-5.13-13.39v-52.27c0-1.3,.76-2.34,2.27-3.13,1.51-.79,3.06-1.19,4.64-1.19,1.73,0,3.33,.4,4.8,1.19,1.48,.79,2.21,1.84,2.21,3.13v18.58h12.74c1.15,0,2.03,.52,2.65,1.57,.61,1.04,.92,2.21,.92,3.51s-.31,2.47-.92,3.51c-.61,1.04-1.5,1.57-2.65,1.57h-12.74v23.54c0,2.16,.45,3.67,1.35,4.54,.9,.86,2.47,1.3,4.7,1.3h4.21c2.02,0,3.51,.61,4.48,1.84,.97,1.22,1.46,2.56,1.46,4,0,1.51-.49,2.88-1.46,4.1-.97,1.23-2.47,1.84-4.48,1.84h-4.21Z"/></g></svg>