<?xml version="1.0" encoding="UTF-8"?><svg xmlns="http://www.w3.org/2000/svg" viewBox="0 0 290 248.84"><defs><style>.d{fill:#5c2100;}.d,.e,.f,.g{stroke-miterlimit:10;}.d,.e,.g{stroke:#826023;}.e{fill:#ad883e;}.f{fill:#705e41;stroke:#443824;}.g{fill:#cd883e;}</style></defs><g id="a"/><g id="b"><g id="c"><g><g><path class="g" d="M88.12,52.18c9.35,13.64-.06,16.51-14.83,26.64-14.77,10.13-37.58,9.01-43.68-6.36C18.64,44.8,5.04,26.9,22.94,26.35c20.29-.61,55.82,12.19,65.18,25.83Z"/><path class="e" d="M80.5,60.91c7.48,10.91-.05,13.21-11.87,21.31s-30.06,7.21-34.94-5.09c-8.78-22.13-19.66-36.45-5.34-36.88,16.23-.49,44.66,9.75,52.14,20.66Z"/><path class="d" d="M86.03,62.76c7.48,10.91-.05,13.21-11.87,21.31s-30.06,7.21-34.94-5.09c-8.78-22.13-19.66-36.45-5.34-36.88,16.23-.49,44.66,9.75,52.14,20.66Z"/></g><g><path class="g" d="M202.47,52.18c-9.35,13.64,.06,16.51,14.83,26.64s37.58,9.01,43.68-6.36c10.97-27.66,24.57-45.56,6.67-46.1-20.29-.61-55.82,12.19-65.18,25.83Z"/><path class="e" d="M210.09,60.91c-7.48,10.91,.05,13.21,11.87,21.31,11.81,8.1,30.06,7.21,34.94-5.09,8.78-22.13,19.66-36.45,5.34-36.88-16.23-.49-44.66,9.75-52.14,20.66Z"/><path class="d" d="M204.56,62.76c-7.48,10.91,.05,13.21,11.87,21.31,11.81,8.1,30.06,7.21,34.94-5.09,8.78-22.13,19.66-36.45,5.34-36.88-16.23-.49-44.66,9.75-52.14,20.66Z"/></g><path class="f" d="M123.17,46.03c-2.56-7.12,13.52-15.92,10.45-27.67-1.68-6.44-7.55-7.79-6.76-11.07,1.07-4.47,19.93-4.91,25.34-6.45,5.41-1.54,7.7,2.51,10.94,5.22,11.01,9.21,12.58,28.11,3.07,39.35-12.99,15.36-40.14,8.69-43.04,.61Z"/><g><path class="f" d="M123.33,46.03c-2.56-7.12,13.52-15.92,10.45-27.67-1.68-6.44-7.55-7.79-6.76-11.07,1.07-4.47,19.93-4.91,25.34-6.45,5.41-1.54,7.7,2.51,10.94,5.22,11.01,9.21,12.58,28.11,3.07,39.35-12.99,15.36-40.14,8.69-43.04,.61Z"/><path class="f" d="M131.9,46.18c-1.67-7,8.79-15.64,6.8-27.18-1.09-6.32-4.91-7.65-4.4-10.87,.69-4.39,12.96-4.82,16.48-6.34,3.52-1.51,5.01,2.47,7.12,5.13,7.16,9.05,8.18,27.62,2,38.66-8.45,15.09-26.1,8.54-27.99,.6Z"/><path class="f" d="M139.3,46.18c-.89-7,4.7-15.64,3.64-27.18-.58-6.32-2.63-7.65-2.35-10.87,.37-4.39,6.94-4.82,8.82-6.34,1.88-1.51,2.68,2.47,3.81,5.13,3.83,9.05,4.38,27.62,1.07,38.66-4.52,15.09-13.97,8.54-14.98,.6Z"/></g><g><circle class="g" cx="103.49" cy="145.34" r="102.99"/><circle class="g" cx="186.51" cy="145.34" r="102.99"/><circle class="g" cx="145" cy="145.34" r="102.99"/></g><ellipse class="g" cx="145" cy="145.34" rx="51.65" ry="102.99"/><g><path class="e" d="M71.52,118.9c-1.42,1.32-5.59,5.5-7.38,12.3-.55,2.11-1.38,5.26-.61,9.22,1.48,7.64,7.63,11.68,8.61,12.3,6.53,4.14,13.27,2.89,15.37,2.46,1.76-.36,9.19-1.86,13.53-8.61,5.4-8.42,1.52-18.05,.61-20.29-.8-1.99-5.24-12.99-14.76-14.14-7.16-.87-12.81,4.38-15.37,6.76Z"/><path class="d" d="M76.89,118.9c-1.18,1.32-4.65,5.5-6.14,12.3-.46,2.11-1.15,5.26-.51,9.22,1.23,7.64,6.35,11.68,7.17,12.3,5.43,4.14,11.04,2.89,12.79,2.46,1.46-.36,7.65-1.86,11.26-8.61,4.5-8.42,1.27-18.05,.51-20.29-.67-1.99-4.36-12.99-12.28-14.14-5.96-.87-10.66,4.38-12.79,6.76Z"/></g><g><path class="e" d="M218.52,118.9c1.42,1.32,5.59,5.5,7.38,12.3,.55,2.11,1.38,5.26,.61,9.22-1.48,7.64-7.63,11.68-8.61,12.3-6.53,4.14-13.27,2.89-15.37,2.46-1.76-.36-9.19-1.86-13.53-8.61-5.41-8.42-1.52-18.05-.61-20.29,.8-1.99,5.24-12.99,14.76-14.14,7.16-.87,12.81,4.38,15.37,6.76Z"/><path class="d" d="M213.15,118.9c1.18,1.32,4.66,5.5,6.14,12.3,.46,2.11,1.15,5.26,.51,9.22-1.23,7.64-6.35,11.68-7.17,12.3-5.43,4.14-11.04,2.89-12.8,2.46-1.46-.36-7.65-1.86-11.26-8.61-4.5-8.42-1.27-18.05-.51-20.29,.67-1.99,4.36-12.99,12.28-14.14,5.96-.87,10.66,4.38,12.8,6.76Z"/></g><g><path class="e" d="M151.05,199.8v-19.58c0-.9-.73-1.64-1.64-1.64h-8.98c-.9,0-1.64,.73-1.64,1.64v19.34c0,.73-.48,1.38-1.19,1.58-10.22,2.87-29.07,5.25-43.87-9.54-1.04-1.03-2.8-.31-2.8,1.15v7.04c0,.39,.14,.77,.39,1.07,15.68,18.33,37.06,14.96,47.47,11.8h0l12.26,.23h0c10.35,3.17,31.87,6.67,47.63-11.75,.25-.3,.39-.68,.39-1.07v-7.04c0-1.46-1.77-2.18-2.8-1.15-14.88,14.87-33.85,12.38-44.03,9.49-.7-.2-1.18-.84-1.18-1.57Z"/><ellipse class="e" cx="143.53" cy="174.06" rx="17.87" ry="10.28"/><path class="d" d="M194.66,188.88c-14.25,12.84-31.72,10.87-41.68,8.18-1.14-.31-1.93-1.35-1.93-2.54v-10.52c7.65-1.16,13.29-5.17,13.29-9.94,0-5.68-8-10.28-17.87-10.28s-17.87,4.6-17.87,10.28c0,4.1,4.17,7.63,10.19,9.29v10.94c0,1.19-.79,2.23-1.94,2.54-9.99,2.67-27.34,4.55-41.51-8.22-1.7-1.53-4.4-.35-4.4,1.94v4.37c0,.63,.22,1.24,.63,1.71,15.46,17.8,36.35,14.74,46.84,11.64,.26-.08,.53-.11,.8-.11l11.85,.23h0c10.3,3.16,31.65,6.64,47.39-11.47,.41-.47,.63-1.08,.63-1.71v-4.37c0-2.29-2.7-3.47-4.4-1.94Z"/></g></g></g></g></svg>